<svg width="30" height="25" viewBox="0 0 30 25" fill="none" xmlns="http://www.w3.org/2000/svg">
<path d="M29.0955 4.03056C28.0414 4.47925 26.9869 4.75946 25.9333 4.872C27.1234 4.16539 27.9285 3.16713 28.3478 1.87728C27.2592 2.51649 26.0975 2.9538 24.8623 3.18946C23.7739 2.04541 22.4367 1.47314 20.8497 1.47314C19.3309 1.47314 18.0362 2.00303 16.9646 3.06305C15.8937 4.12302 15.3582 5.40438 15.3582 6.90731C15.3582 7.31103 15.4034 7.72619 15.4942 8.15238C13.2499 8.04022 11.1445 7.48224 9.17787 6.47836C7.21129 5.47438 5.5423 4.13682 4.17089 2.46563C3.67214 3.30667 3.4227 4.22096 3.4227 5.20797C3.4227 6.13894 3.64368 7.00271 4.08595 7.7991C4.52793 8.59535 5.12313 9.24021 5.87125 9.7338C4.98701 9.7001 4.15961 9.4701 3.38899 9.04386V9.11114C3.38899 10.4236 3.80553 11.5758 4.63852 12.5688C5.47162 13.5616 6.52296 14.1866 7.79233 14.4447C7.31623 14.5679 6.83441 14.6296 6.3471 14.6296C6.02972 14.6296 5.68398 14.6016 5.31 14.5459C5.66135 15.6337 6.30746 16.5279 7.2481 17.2293C8.18891 17.9302 9.25439 18.2916 10.4445 18.3146C8.44975 19.8621 6.17721 20.636 3.62695 20.636C3.13949 20.636 2.69755 20.614 2.30078 20.569C4.85111 22.1951 7.66203 23.0082 10.7337 23.0082C12.6832 23.0082 14.5138 22.7029 16.2247 22.0915C17.9366 21.4804 19.3985 20.6615 20.6115 19.6349C21.8241 18.6087 22.8698 17.4282 23.7482 16.0935C24.6266 14.7586 25.2809 13.3651 25.7119 11.9127C26.1425 10.4599 26.3579 9.00485 26.3579 7.54646C26.3579 7.23236 26.3522 6.99694 26.3408 6.83983C27.418 6.06627 28.336 5.12953 29.0955 4.03056Z" fill="#6F6F6F"/>
</svg>
