<svg width="30" height="25" viewBox="0 0 30 25" fill="none" xmlns="http://www.w3.org/2000/svg">
<path d="M29.5046 20.2767C29.4704 20.1821 29.4384 20.1034 29.4087 20.0405C28.9179 18.9076 27.9802 17.5168 26.5961 15.8679L26.5668 15.8302L26.5521 15.8117L26.5373 15.7927H26.5224C25.8942 15.0249 25.4964 14.5087 25.3298 14.2444C25.025 13.7409 24.9567 13.2312 25.1233 12.7149C25.2409 12.3247 25.6832 11.5008 26.4486 10.242C26.8512 9.57479 27.1701 9.04012 27.4058 8.63728C29.1044 5.74228 29.8407 3.89233 29.6146 3.08674L29.5271 2.89847C29.4681 2.78514 29.3158 2.68145 29.0706 2.58689C28.8251 2.49252 28.511 2.47693 28.128 2.53981L23.8871 2.57737C23.8183 2.54616 23.7201 2.54906 23.5924 2.58689C23.4648 2.62472 23.4009 2.64368 23.4009 2.64368L23.327 2.69097L23.2685 2.74777C23.2194 2.78533 23.1654 2.85139 23.1065 2.94581C23.0477 3.03991 22.9988 3.15035 22.9595 3.27618C22.4978 4.79912 21.9727 6.21508 21.3837 7.52399C21.0204 8.30447 20.6868 8.98087 20.3822 9.55358C20.0778 10.1261 19.8225 10.5479 19.6166 10.8183C19.4101 11.089 19.2241 11.3058 19.0568 11.4696C18.8899 11.6334 18.7624 11.7027 18.6741 11.6773C18.5858 11.652 18.5025 11.6269 18.4236 11.6018C18.2862 11.4884 18.1758 11.3343 18.0926 11.1392C18.0087 10.9442 17.9524 10.6986 17.923 10.4028C17.8937 10.1069 17.8764 9.85228 17.8715 9.63822C17.8668 9.42445 17.8689 9.12204 17.879 8.73191C17.8892 8.34156 17.8937 8.07745 17.8937 7.93899C17.8937 7.46064 17.901 6.94149 17.9156 6.38139C17.9304 5.82129 17.9424 5.37754 17.9524 5.0506C17.9625 4.72333 17.9671 4.37712 17.9671 4.0121C17.9671 3.64708 17.9498 3.36081 17.9156 3.15306C17.8818 2.94554 17.8299 2.74414 17.7615 2.54887C17.6925 2.35379 17.5917 2.20289 17.4595 2.09578C17.327 1.98878 17.1623 1.90387 16.9662 1.84079C16.4459 1.68982 15.7832 1.60816 14.978 1.59546C13.1521 1.57033 11.9788 1.7215 11.4585 2.04876C11.2523 2.18703 11.0658 2.37595 10.899 2.61493C10.7222 2.89193 10.6976 3.04308 10.8252 3.06795C11.4143 3.1811 11.8314 3.45176 12.0768 3.87964L12.1653 4.10641C12.2341 4.26999 12.3028 4.55962 12.3715 4.97489C12.4402 5.39016 12.4845 5.84954 12.504 6.35276C12.553 7.2717 12.553 8.05835 12.504 8.71272C12.4548 9.36737 12.4084 9.87701 12.3641 10.242C12.3198 10.607 12.2536 10.9028 12.1653 11.1293C12.0768 11.3559 12.018 11.4943 11.9885 11.5446C11.959 11.5948 11.9345 11.6265 11.915 11.6389C11.7874 11.7016 11.6547 11.7336 11.5173 11.7336C11.3798 11.7336 11.213 11.6453 11.0166 11.4691C10.8204 11.2928 10.6167 11.0506 10.4056 10.7422C10.1945 10.4337 9.9564 10.0026 9.69123 9.44891C9.42627 8.89516 9.15137 8.24072 8.86665 7.48556L8.63109 6.93791C8.48384 6.58558 8.28269 6.07258 8.02742 5.39935C7.77201 4.72585 7.54625 4.07439 7.34999 3.44506C7.27154 3.18076 7.15368 2.97954 6.99663 2.84108L6.92294 2.78428C6.87393 2.73403 6.79527 2.68066 6.68738 2.62378C6.57932 2.56699 6.46656 2.52626 6.34865 2.50118L2.31374 2.53874C1.90142 2.53874 1.62167 2.65851 1.47435 2.89768L1.4154 3.01081C1.38595 3.07383 1.37109 3.17449 1.37109 3.31301C1.37109 3.45149 1.40055 3.62143 1.4595 3.82264C2.04852 5.59747 2.68908 7.30914 3.38115 8.95791C4.07322 10.6067 4.67463 11.9349 5.18499 12.9412C5.69546 13.9482 6.21579 14.8986 6.74597 15.792C7.27613 16.6857 7.62707 17.2584 7.79879 17.51C7.97069 17.7621 8.10572 17.9505 8.20386 18.0764L8.57208 18.5294C8.8077 18.8315 9.15368 19.1934 9.6102 19.6149C10.0668 20.0367 10.5723 20.4519 11.127 20.8613C11.6818 21.2701 12.3272 21.6036 13.0636 21.8617C13.7999 22.1198 14.5165 22.2234 15.2136 22.1734H16.9071C17.2505 22.1353 17.5107 21.9971 17.6875 21.758L17.7462 21.6634C17.7857 21.5882 17.8226 21.4717 17.8565 21.3144C17.891 21.1573 17.9081 20.984 17.9081 20.7953C17.898 20.2542 17.9301 19.7665 18.0036 19.3324C18.0771 18.8983 18.1607 18.571 18.2542 18.3507C18.3477 18.1304 18.4533 17.9446 18.5708 17.794C18.6884 17.643 18.7722 17.5516 18.8216 17.5201C18.8705 17.4884 18.9095 17.4669 18.9389 17.454C19.1745 17.3534 19.4519 17.4509 19.771 17.7469C20.0903 18.0427 20.3897 18.4079 20.6696 18.842C20.9495 19.2765 21.2856 19.764 21.6782 20.3049C22.0712 20.8463 22.4147 21.2486 22.709 21.5132L23.0033 21.7399C23.2001 21.8909 23.4554 22.0296 23.7695 22.1553C24.0833 22.2811 24.3579 22.3126 24.5939 22.2498L28.3635 22.1744C28.7366 22.1744 29.0265 22.0951 29.2323 21.938C29.4385 21.7807 29.5611 21.6074 29.6005 21.419C29.64 21.2303 29.6421 21.0161 29.6081 20.7767C29.5731 20.5378 29.5388 20.3709 29.5046 20.2767Z" fill="#6F6F6F"/>
</svg>
