<svg width="30" height="25" viewBox="0 0 30 25" fill="none" xmlns="http://www.w3.org/2000/svg">
<path d="M28.691 3.27914C27.6133 1.99812 25.6237 1.47559 21.8238 1.47559L8.03052 1.47559C4.14373 1.47559 2.12035 2.03182 1.04674 3.39564C0 4.72539 0 6.68466 0 9.39632L0 14.5648C0 19.8181 1.24195 22.4854 8.03052 22.4854H21.8238C25.119 22.4854 26.945 22.0244 28.1263 20.8938C29.3378 19.7346 29.8547 17.8418 29.8547 14.5648V9.39632C29.8547 6.53664 29.7737 4.56582 28.691 3.27914ZM19.1668 12.6941L12.9033 15.9675C12.7632 16.0407 12.6101 16.077 12.4572 16.077C12.284 16.077 12.1112 16.0304 11.9582 15.9377C11.6701 15.7631 11.4941 15.4508 11.4941 15.114V8.58816C11.4941 8.25186 11.6696 7.93986 11.9572 7.76516C12.2448 7.59047 12.6026 7.57854 12.901 7.73357L19.1647 10.9859C19.4833 11.1513 19.6833 11.4803 19.6838 11.8392C19.6843 12.1984 19.485 12.5279 19.1668 12.6941Z" fill="#6F6F6F"/>
</svg>
